<svg width="32" height="32" viewBox="0 0 32 32" fill="none" xmlns="http://www.w3.org/2000/svg">
<g clip-path="url(#clip0_79_155)">
<path d="M0.83606 19.8131L2.994 20.0579C3.24632 20.845 3.56644 21.6057 3.95434 22.3364L2.59856 24.0424C2.30105 24.4152 2.33118 24.9538 2.67012 25.2927L6.71861 29.3525C7.05755 29.6914 7.59609 29.7215 7.96893 29.424L9.67494 28.057C10.4056 28.4411 11.1663 28.7574 11.9534 29.006L12.1982 31.1639C12.2509 31.6422 12.6576 32 13.1359 32H18.8754C19.3537 32 19.7604 31.6422 19.8131 31.1639L20.0579 29.006C20.845 28.7574 21.6057 28.4411 22.3364 28.057L24.0424 29.4127C24.4152 29.7103 24.9538 29.6801 25.2927 29.3412L29.3525 25.2927C29.6914 24.9538 29.7215 24.4152 29.424 24.0424L28.057 22.3364C28.4411 21.6057 28.7574 20.845 29.006 20.0579L31.1639 19.8131C31.6422 19.7604 32 19.3537 32 18.8754V13.1359C32 12.6576 31.6422 12.2509 31.1639 12.1982L29.006 11.9534C28.7574 11.1663 28.4411 10.4056 28.057 9.67494L29.4127 7.96893C29.7103 7.59609 29.6801 7.05755 29.3412 6.71861L25.2927 2.65882C24.9538 2.31988 24.4152 2.28975 24.0424 2.58727L22.3364 3.95434C21.6057 3.5702 20.845 3.25385 20.0579 3.0053L19.8131 0.847358C19.7642 0.365305 19.3574 0 18.8754 0H13.1359C12.6576 0 12.2509 0.357773 12.1982 0.83606L11.9534 2.994C11.1663 3.24632 10.4056 3.56644 9.67494 3.95434L7.96893 2.59856C7.59609 2.30105 7.05755 2.33118 6.71861 2.67012L2.65882 6.71861C2.31988 7.05755 2.28975 7.59609 2.58727 7.96893L3.95434 9.67494C3.5702 10.4056 3.25385 11.1663 3.0053 11.9534L0.847358 12.1982C0.365305 12.2471 0 12.6539 0 13.1359V18.8754C0 19.3537 0.357773 19.7604 0.83606 19.8131ZM1.88302 13.9758L3.83382 13.746C4.22173 13.7046 4.5456 13.4259 4.63976 13.0455C4.91468 11.9948 5.33271 10.9855 5.88255 10.0515C6.08215 9.71637 6.05202 9.29081 5.81099 8.98576L4.58326 7.44545L7.45298 4.57573L8.99329 5.80346C9.29834 6.04449 9.7239 6.07462 10.0591 5.87501C10.9931 5.32517 12.0024 4.90714 13.0531 4.63222C13.4259 4.53431 13.7008 4.21796 13.746 3.83382L13.9682 1.88302H18.0355L18.2653 3.83382C18.3067 4.22173 18.5854 4.5456 18.9658 4.63976C20.024 4.91091 21.0371 5.32894 21.9786 5.88255C22.3138 6.08215 22.7393 6.05202 23.0444 5.81099L24.5847 4.58326L27.4544 7.45298L26.2267 8.99329C25.9856 9.29834 25.9555 9.7239 26.1551 10.0591C26.705 10.9931 27.123 12.0024 27.3979 13.0531C27.4921 13.4221 27.8009 13.6933 28.1775 13.746L30.1283 13.9682V18.0355L28.1775 18.2653C27.7896 18.3067 27.4657 18.5854 27.3715 18.9658C27.1004 20.024 26.6824 21.0371 26.1287 21.9786C25.9292 22.3138 25.9593 22.7393 26.2003 23.0444L27.428 24.5847L24.5583 27.4544L23.018 26.2267C22.713 25.9856 22.2874 25.9555 21.9522 26.1551C21.0107 26.7087 19.9976 27.1268 18.9394 27.3979C18.5779 27.4996 18.3142 27.8046 18.2653 28.1775L18.0431 30.1283H13.9758L13.746 28.1775C13.7046 27.7896 13.4259 27.4657 13.0455 27.3715C11.9948 27.0966 10.9855 26.6786 10.0515 26.1287C9.71637 25.9292 9.29081 25.9593 8.98576 26.2003L7.44545 27.428L4.57573 24.5583L5.80346 23.018C6.04449 22.713 6.07462 22.2874 5.87501 21.9522C5.32141 21.0107 4.90338 19.9976 4.63222 18.9394C4.52677 18.5741 4.21419 18.3067 3.83382 18.2653L1.88302 18.0431V13.9758Z" fill="black"/>
<path d="M16.0057 23.4586C20.1219 23.4586 23.4586 20.1219 23.4586 16.0057C23.4586 11.8894 20.1219 8.55267 16.0057 8.55267C11.8894 8.55267 8.55267 11.8894 8.55267 16.0057C8.56021 20.1182 11.8931 23.4511 16.0057 23.4586ZM16.0057 10.4357C19.0825 10.4357 21.5756 12.9288 21.5756 16.0057C21.5756 19.0825 19.0825 21.5756 16.0057 21.5756C12.9288 21.5756 10.4357 19.0825 10.4357 16.0057C10.4395 12.9326 12.9326 10.4395 16.0057 10.4357Z" fill="black"/>
</g>
<defs>
<clipPath id="clip0_79_155">
<rect width="32" height="32" fill="white"/>
</clipPath>
</defs>
</svg>
