<svg width="38" height="38" viewBox="0 0 38 38" fill="none" xmlns="http://www.w3.org/2000/svg">
<g clip-path="url(#clip0_79_158)">
<path d="M19 29.2271C24.6296 29.2271 29.2271 24.6296 29.2271 19C29.2271 13.3704 24.6296 8.77283 19 8.77283C13.3704 8.77283 8.77283 13.3704 8.77283 19C8.77283 24.6296 13.3704 29.2271 19 29.2271ZM19 9.99258C23.9728 9.99258 28.0074 14.0271 28.0074 19C28.0074 23.9728 23.9728 28.0074 19 28.0074C14.0271 28.0074 9.99258 23.9728 9.99258 19C9.99258 14.0271 14.0271 9.99258 19 9.99258Z" fill="black" stroke="black" stroke-miterlimit="10"/>
<path d="M19.6099 6.47406V0.844435C19.6099 0.51604 19.3284 0.234558 19 0.234558C18.6716 0.234558 18.3901 0.51604 18.3901 0.844435V6.47406C18.3901 6.80246 18.6716 7.08394 19 7.08394C19.3284 7.08394 19.6099 6.80246 19.6099 6.47406Z" fill="black" stroke="black" stroke-miterlimit="10"/>
<path d="M15.763 7.50619H15.9037C16.2321 7.41236 16.4198 7.08397 16.326 6.75557L15.6692 4.31606C15.5753 3.98767 15.2469 3.80002 14.9185 3.89384C14.5901 3.98767 14.4025 4.31606 14.4963 4.64446L15.1531 7.08397C15.2469 7.31853 15.4815 7.50619 15.763 7.50619Z" fill="black" stroke="black" stroke-miterlimit="10"/>
<path d="M12.7605 8.77282C12.8543 8.77282 12.9482 8.72591 13.042 8.67899C13.3235 8.49134 13.4173 8.16295 13.2766 7.83455L12.0099 5.62961C11.8222 5.34813 11.4938 5.2543 11.1654 5.39504C10.884 5.5827 10.7901 5.91109 10.9309 6.23949L12.1975 8.44443C12.3383 8.63208 12.5259 8.77282 12.7605 8.77282Z" fill="black" stroke="black" stroke-miterlimit="10"/>
<path d="M6.56792 5.72347C6.33335 5.4889 5.95804 5.4889 5.72347 5.72347C5.4889 5.95804 5.4889 6.33335 5.72347 6.56792L9.71113 10.5556C9.85187 10.6963 9.99261 10.7432 10.1333 10.7432C10.2741 10.7432 10.4617 10.6963 10.5556 10.5556C10.7901 10.321 10.7901 9.94569 10.5556 9.71113L6.56792 5.72347Z" fill="black" stroke="black" stroke-miterlimit="10"/>
<path d="M5.67654 12.0099L7.88148 13.2765C7.9753 13.3235 8.06913 13.3704 8.16296 13.3704C8.35061 13.3704 8.58518 13.2765 8.67901 13.0889C8.86666 12.8074 8.72592 12.4321 8.44444 12.2444L6.2395 10.9778C5.95802 10.7901 5.58271 10.9309 5.39506 11.2123C5.25432 11.4469 5.39506 11.8222 5.67654 12.0099Z" fill="black" stroke="black" stroke-miterlimit="10"/>
<path d="M3.89384 14.9654C3.80002 15.2938 3.98767 15.6222 4.31606 15.716L6.75557 16.3728H6.89631C7.17779 16.3728 7.41236 16.1852 7.45927 15.9037C7.5531 15.5753 7.36545 15.2469 7.03705 15.1531L4.59755 14.4963C4.31607 14.4494 3.94076 14.637 3.89384 14.9654Z" fill="black" stroke="black" stroke-miterlimit="10"/>
<path d="M0.844435 19.6099H6.47406C6.80246 19.6099 7.08394 19.3284 7.08394 19C7.08394 18.6716 6.80246 18.3901 6.47406 18.3901H0.844435C0.51604 18.3901 0.234558 18.6716 0.234558 19C0.234558 19.3284 0.51604 19.6099 0.844435 19.6099Z" fill="black" stroke="black" stroke-miterlimit="10"/>
<path d="M6.75557 21.6741L4.31606 22.3308C3.98767 22.4247 3.80002 22.7531 3.89384 23.0815C3.98767 23.3629 4.22224 23.5506 4.45681 23.5506H4.59755L7.03705 22.8938C7.36545 22.8 7.5531 22.4716 7.45927 22.1432C7.41236 21.7679 7.08397 21.5802 6.75557 21.6741Z" fill="black" stroke="black" stroke-miterlimit="10"/>
<path d="M5.442 26.8346C5.53583 27.0222 5.77039 27.116 5.95805 27.116C6.05188 27.116 6.1457 27.0691 6.23953 27.0222L8.44447 25.7556C8.72595 25.5679 8.81978 25.2395 8.67904 24.9111C8.49138 24.6296 8.16299 24.5358 7.83459 24.6765L5.62965 25.9432C5.39509 26.1778 5.25435 26.5531 5.442 26.8346Z" fill="black" stroke="black" stroke-miterlimit="10"/>
<path d="M6.14569 32.4642C6.28644 32.4642 6.47409 32.4173 6.56792 32.2765L10.5556 28.2889C10.7901 28.0543 10.7901 27.679 10.5556 27.4444C10.321 27.2099 9.94569 27.2099 9.71113 27.4444L5.72347 31.4321C5.4889 31.6666 5.4889 32.042 5.72347 32.2765C5.86421 32.3703 6.00495 32.4642 6.14569 32.4642Z" fill="black" stroke="black" stroke-miterlimit="10"/>
<path d="M11.4938 32.6518C11.6815 32.6518 11.916 32.558 12.0099 32.3704L13.2765 30.1654C13.4642 29.8839 13.3234 29.5086 13.042 29.321C12.7605 29.1333 12.3852 29.2741 12.1975 29.5555L10.9308 31.7605C10.7432 32.042 10.8839 32.4173 11.1654 32.6049C11.2592 32.6049 11.3531 32.6518 11.4938 32.6518Z" fill="black" stroke="black" stroke-miterlimit="10"/>
<path d="M15.1062 34.1531C15.3877 34.1531 15.6222 33.9654 15.6692 33.6839L16.326 31.2444C16.4198 30.916 16.2321 30.5876 15.9037 30.4938C15.5753 30.4 15.2469 30.5876 15.1531 30.916L14.4963 33.3555C14.4025 33.6839 14.5901 34.0123 14.9185 34.1062C15.0124 34.1531 15.0593 34.1531 15.1062 34.1531Z" fill="black" stroke="black" stroke-miterlimit="10"/>
<path d="M19.6099 37.1556V31.526C19.6099 31.1976 19.3284 30.9161 19 30.9161C18.6716 30.9161 18.3901 31.1976 18.3901 31.526V37.1556C18.3901 37.484 18.6716 37.7655 19 37.7655C19.3284 37.7655 19.6099 37.484 19.6099 37.1556Z" fill="black" stroke="black" stroke-miterlimit="10"/>
<path d="M22.8938 34.1531H23.0346C23.363 34.0593 23.5506 33.7309 23.4568 33.4025L22.8 30.963C22.7062 30.6346 22.3778 30.4469 22.0494 30.5408C21.721 30.6346 21.5334 30.963 21.6272 31.2914L22.284 33.7309C22.3778 33.9654 22.6124 34.1531 22.8938 34.1531Z" fill="black" stroke="black" stroke-miterlimit="10"/>
<path d="M25.8025 29.5556C25.6148 29.2741 25.2864 29.1803 24.958 29.321C24.6766 29.5087 24.5827 29.8371 24.7235 30.1655L25.9901 32.3704C26.084 32.558 26.3185 32.6519 26.5062 32.6519C26.6 32.6519 26.6938 32.605 26.7877 32.558C27.0692 32.3704 27.163 32.042 27.0222 31.7136L25.8025 29.5556Z" fill="black" stroke="black" stroke-miterlimit="10"/>
<path d="M31.8543 32.4642C31.995 32.4642 32.1827 32.4173 32.2765 32.2765C32.5111 32.042 32.5111 31.6666 32.2765 31.4321L28.2889 27.4444C28.0543 27.2099 27.679 27.2099 27.4444 27.4444C27.2099 27.679 27.2099 28.0543 27.4444 28.2889L31.4321 32.2765C31.5259 32.3703 31.6666 32.4642 31.8543 32.4642Z" fill="black" stroke="black" stroke-miterlimit="10"/>
<path d="M32.558 26.8346C32.7456 26.5531 32.6049 26.1778 32.3234 25.9901L30.1185 24.7234C29.837 24.5358 29.4617 24.6765 29.274 24.958C29.0864 25.2395 29.2271 25.6148 29.5086 25.8025L31.7135 27.0691C31.8074 27.116 31.9012 27.163 31.995 27.163C32.2296 27.116 32.4642 27.0222 32.558 26.8346Z" fill="black" stroke="black" stroke-miterlimit="10"/>
<path d="M33.6839 22.3308L31.2444 21.6741C30.916 21.5802 30.5876 21.7679 30.4938 22.0963C30.4 22.4247 30.5876 22.7531 30.916 22.8469L33.3555 23.5037H33.4963C33.7778 23.5037 34.0123 23.316 34.0592 23.0345C34.2 22.7531 34.0123 22.3778 33.6839 22.3308Z" fill="black" stroke="black" stroke-miterlimit="10"/>
<path d="M37.1556 18.3901H31.526C31.1976 18.3901 30.9161 18.6716 30.9161 19C30.9161 19.3284 31.1976 19.6099 31.526 19.6099H37.1556C37.484 19.6099 37.7655 19.3284 37.7655 19C37.7655 18.6716 37.484 18.3901 37.1556 18.3901Z" fill="black" stroke="black" stroke-miterlimit="10"/>
<path d="M31.2444 16.326L33.6839 15.6692C34.0123 15.5753 34.2 15.2469 34.1062 14.9185C34.0123 14.5901 33.6839 14.4025 33.3555 14.4963L30.916 15.1531C30.5876 15.2469 30.4 15.5753 30.4938 15.9037C30.5876 16.1852 30.8222 16.3729 31.0568 16.3729C31.1506 16.3729 31.1975 16.3729 31.2444 16.326Z" fill="black" stroke="black" stroke-miterlimit="10"/>
<path d="M32.558 11.1654C32.3704 10.884 32.042 10.7901 31.7136 10.9309L29.5086 12.1975C29.2272 12.3852 29.1333 12.7136 29.2741 13.042C29.3679 13.2296 29.6025 13.3235 29.7901 13.3235C29.8839 13.3235 29.9778 13.2766 30.0716 13.2296L32.2765 11.963C32.6049 11.8222 32.7457 11.4422 32.558 11.1654Z" fill="black" stroke="black" stroke-miterlimit="10"/>
<path d="M28.2889 10.5556L32.2765 6.56792C32.5111 6.33335 32.5111 5.95804 32.2765 5.72347C32.042 5.4889 31.6666 5.4889 31.4321 5.72347L27.4444 9.71113C27.2099 9.94569 27.2099 10.321 27.4444 10.5556C27.5852 10.6963 27.7259 10.7432 27.8666 10.7432C28.0074 10.7432 28.1481 10.6963 28.2889 10.5556Z" fill="black" stroke="black" stroke-miterlimit="10"/>
<path d="M25.2864 8.77282C25.4741 8.77282 25.7086 8.67899 25.8025 8.49133L27.0691 6.2864C27.2568 6.00491 27.116 5.62961 26.8346 5.44195C26.5531 5.2543 26.1778 5.39504 25.9901 5.67652L24.7234 7.88146C24.5358 8.16294 24.6765 8.53825 24.958 8.7259C25.0518 8.7259 25.1457 8.77282 25.2864 8.77282Z" fill="black" stroke="black" stroke-miterlimit="10"/>
<path d="M22.2371 7.50617C22.5185 7.50617 22.7531 7.31851 22.8 7.03703L23.4568 4.59752C23.5506 4.26913 23.363 3.94073 23.0346 3.84691C22.7062 3.75308 22.3778 3.94073 22.284 4.26913L21.6272 6.70864C21.5334 7.03703 21.721 7.36543 22.0494 7.45925C22.1432 7.50617 22.1901 7.50617 22.2371 7.50617Z" fill="black" stroke="black" stroke-miterlimit="10"/>
</g>
<defs>
<clipPath id="clip0_79_158">
<rect width="38" height="38" fill="white"/>
</clipPath>
</defs>
</svg>
